# xmcd CD database file
#
# Track frame offsets:
#	150
#	22466
#	33539
#	52760
#	63402
#	79861
#	90900
#	104409
#	117401
#	131843
#	147892
#	162044
#	179694
#	190741
#
# Disc length: 2699 seconds
#
# Revision: 1
# Processed by: cddbd v1.5PL3 Copyright (c) Steve Scherf et al.
# Submitted via: CDex 1.50beta8
#
DISCID=c10a890e
DTITLE=Alan Jackson - A Tribute To Alan Jackson
DYEAR=2002
DGENRE=Christian Gangsta
TTITLE0=Where Were You
TTITLE1=Chattahoochie
TTITLE2=Gone Country
TTITLE3=Shes Got Rythym
TTITLE4=Midnight In Montgomery
TTITLE5=Tall Tall Trees
TTITLE6=Chasing That Neon Rainbow
TTITLE7=Don't Rock The Jukebox
TTITLE8=Summertime Blues
TTITLE9=Here In The Realm World
TTITLE10=When Somebody Loves You
TTITLE11=Where I Come From
TTITLE12=Meat And Potato Man
TTITLE13=It's Alright To Be A Redneck
EXTD=alan jackson YEAR: 2002
EXTT0=
EXTT1=
EXTT2=
EXTT3=
EXTT4=
EXTT5=
EXTT6=
EXTT7=
EXTT8=
EXTT9=
EXTT10=
EXTT11=
EXTT12=
EXTT13=
PLAYORDER=
